<?xml version="1.0" encoding="UTF-8" standalone="no"?>
<!-- Created with Inkscape (http://www.inkscape.org/) -->

<svg
   width="119.99998"
   height="120"
   viewBox="0 0 31.749994 31.749999"
   version="1.1"
   id="svg353"
   inkscape:version="1.3.2 (091e20ef0f, 2023-11-25)"
   sodipodi:docname="krg.svg"
   xmlns:inkscape="http://www.inkscape.org/namespaces/inkscape"
   xmlns:sodipodi="http://sodipodi.sourceforge.net/DTD/sodipodi-0.dtd"
   xmlns="http://www.w3.org/2000/svg"
   xmlns:svg="http://www.w3.org/2000/svg">
  <sodipodi:namedview
     id="namedview355"
     pagecolor="#ffffff"
     bordercolor="#000000"
     borderopacity="0.25"
     inkscape:showpageshadow="2"
     inkscape:pageopacity="0.0"
     inkscape:pagecheckerboard="0"
     inkscape:deskcolor="#d1d1d1"
     inkscape:document-units="px"
     showgrid="false"
     inkscape:zoom="2.9351006"
     inkscape:cx="-37.307069"
     inkscape:cy="67.629709"
     inkscape:window-width="1920"
     inkscape:window-height="1011"
     inkscape:window-x="0"
     inkscape:window-y="0"
     inkscape:window-maximized="1"
     inkscape:current-layer="layer1" />
  <defs
     id="defs350" />
  <g
     inkscape:label="Layer 1"
     inkscape:groupmode="layer"
     id="layer1"
     transform="translate(329.79974,332.55272)">
    <g
       id="g13">
      <g
         id="g12">
        <g
           id="g11">
          <g
             id="g10">
            <g
               id="g9">
              <g
                 id="g8">
                <g
                   id="g7">
                  <g
                     id="g6">
                    <g
                       id="g5">
                      <g
                         id="g4">
                        <g
                           id="g3">
                          <g
                             id="g2">
                            <g
                               id="g1">
                              <circle
                                 style="fill:#f7f7f7;fill-opacity:1;stroke:none;stroke-width:2.17391;stroke-linecap:round;stroke-linejoin:round"
                                 id="path398"
                                 cx="-313.92474"
                                 cy="-316.67773"
                                 r="15.875" />
                              <path
                                 style="fill:#c1a04d;fill-opacity:1;stroke:#000000;stroke-width:0.132292;stroke-dasharray:none"
                                 d="m -314.15968,-327.23601 c -0.96055,0.22883 -0.53717,1.72446 0.41311,1.49215 0.99453,-0.24313 0.57428,-1.72738 -0.41311,-1.49215 m -8.23272,3.14164 c 0.1671,0.3397 0.72797,0.25295 1.03278,0.18684 0.89373,-0.19384 1.86498,-0.88715 2.56719,-1.45002 0.21612,-0.17323 0.47052,-0.64124 0.7377,-0.68435 0,0.65604 0.16106,1.34073 0.85573,1.59077 0.19217,0.0692 0.57886,-0.0177 0.72661,0.092 0.0889,0.066 -0.0162,0.1881 -0.0352,0.26473 -0.0294,0.11859 0.003,0.24808 0.0582,0.35409 0.39226,0.75536 1.20028,0.78275 1.90614,0.59016 l -0.0295,-1.23933 c -0.45919,0.0947 -1.47398,0.015 -1.28895,-0.7377 0.0598,-0.24334 0.37092,-0.39627 0.48825,-0.61967 0.28378,-0.54033 -0.10087,-1.21303 -0.64519,-1.38603 -0.89507,-0.28447 -1.72048,0.1232 -2.44916,0.60899 -0.68809,0.45873 -1.34327,0.96379 -2.03605,1.41606 -0.60667,0.39606 -1.26905,0.65188 -1.88851,1.01343 m 9.08845,-0.29508 -0.0295,1.23933 c 0.70586,0.19259 1.51388,0.1652 1.90613,-0.59016 0.055,-0.10601 0.0876,-0.2355 0.0582,-0.35409 -0.019,-0.0766 -0.1241,-0.19876 -0.0352,-0.26473 0.14775,-0.10969 0.53443,-0.0229 0.72661,-0.092 0.69467,-0.25004 0.85573,-0.93473 0.85573,-1.59077 0.26717,0.0431 0.52158,0.51112 0.7377,0.68435 0.7022,0.56287 1.67346,1.25618 2.56719,1.45002 0.30481,0.0661 0.86567,0.15286 1.03278,-0.18684 -0.61946,-0.36156 -1.28184,-0.61737 -1.88851,-1.01343 -0.69278,-0.45227 -1.34796,-0.95733 -2.03605,-1.41606 -0.72869,-0.48579 -1.55409,-0.89346 -2.44916,-0.60899 -0.54432,0.173 -0.92897,0.8457 -0.64519,1.38603 0.11733,0.22341 0.42842,0.37632 0.48825,0.61967 0.18502,0.75269 -0.82976,0.83243 -1.28895,0.7377 m -0.61967,-1.59343 c 0.10012,-0.35018 0.35166,-0.38024 0.23518,-0.79658 -0.0151,-0.0541 -0.0284,-0.13228 0.0399,-0.15617 0.20435,-0.0715 0.28672,0.25859 0.28504,0.3921 -0.004,0.33684 -0.23063,0.55363 -0.56011,0.56065 m -0.50163,0.47213 0.11803,5.60651 h 0.7377 l 0.11803,-5.60651 h -0.97376 m -6.58028,1.97703 c 0.80452,0.29322 1.62672,-0.32239 2.24261,-0.77167 0.1724,-0.12576 0.56969,-0.3355 0.62099,-0.5563 0.0332,-0.14277 -0.12558,-0.42267 -0.17837,-0.56054 -0.26901,0.0907 -0.49273,0.35895 -0.70819,0.53843 -0.3983,0.33178 -0.81787,0.64222 -1.26885,0.89917 -0.1946,0.11088 -0.63906,0.22986 -0.70819,0.45091 m 11.44909,-1.88851 c -0.0528,0.13787 -0.21154,0.41777 -0.17837,0.56054 0.0513,0.2208 0.44859,0.43054 0.62099,0.5563 0.61588,0.44928 1.43808,1.06489 2.2426,0.77167 -0.0691,-0.22104 -0.51358,-0.34003 -0.70819,-0.45091 -0.45097,-0.25695 -0.87055,-0.56739 -1.26884,-0.89917 -0.21546,-0.17948 -0.43918,-0.44772 -0.70819,-0.53843 m -8.46878,0.76721 -1.15081,0.99311 -0.67869,0.48228 c 0.7153,0.0904 1.19408,-0.19393 1.74097,-0.63146 0.18447,-0.14757 0.42932,-0.3016 0.53115,-0.51935 l -0.44262,-0.32458 m 8.14419,0 -0.41311,0.32458 c 0.10182,0.21775 0.34668,0.37178 0.53114,0.51935 0.5469,0.43753 1.02567,0.72186 1.74097,0.63146 l -0.67868,-0.48228 -1.18032,-0.99311 m -8.64583,1.65244 c 0.60695,0.1445 1.58482,-0.49896 1.68195,-1.1213 -0.15512,-0.001 -0.38309,-0.10316 -0.52602,-0.0612 -0.12044,0.0354 -0.21647,0.21094 -0.30063,0.29724 -0.23089,0.23677 -0.76313,0.57097 -0.8553,0.88524 m 7.49502,-1.1213 c 0.0971,0.62234 1.075,1.2658 1.68195,1.1213 -0.0921,-0.31422 -0.6244,-0.64854 -0.85529,-0.88524 -0.0873,-0.0895 -0.17601,-0.24206 -0.29595,-0.28882 -0.13642,-0.0532 -0.3794,0.0515 -0.53071,0.0528 m -2.86227,7.87862 v 0.0295 c 0.21191,0.1115 0.67837,0.50187 0.91475,0.46514 0.18215,-0.0283 0.3933,-0.25177 0.53114,-0.36525 0.69675,-0.57364 0.99828,-1.56605 0.51778,-2.372 -0.75889,-1.27289 -2.37419,-1.14055 -3.49808,-1.84204 -0.50153,-0.31303 -0.75801,-0.81765 -0.64918,-1.40384 0.41489,0.19229 0.70225,0.41901 1.15038,0.10112 0.10219,-0.0725 0.25107,-0.1926 0.22541,-0.3359 -0.0524,-0.29281 -0.66504,-0.24936 -0.87415,-0.2347 -0.62759,0.044 -1.20052,0.64878 -1.10867,1.29571 0.23952,1.68706 2.36229,1.67396 3.41029,2.54729 0.90793,0.7566 0.2505,1.70821 -0.61967,2.11496 m 2.09506,-5.48848 c 0.21586,1.16275 -1.05919,1.78637 -2.03604,1.91802 0.21882,0.17998 0.59818,0.24128 0.85573,0.37714 0.0977,0.0516 0.20752,0.14388 0.32458,0.12889 0.20082,-0.0257 0.43114,-0.21802 0.59016,-0.33347 0.61142,-0.44386 1.16768,-1.21928 0.71036,-1.97254 -0.28736,-0.47331 -0.753,-0.59624 -1.27101,-0.59005 -0.15977,0.002 -0.47705,0.0291 -0.54228,0.20954 -0.0533,0.14757 0.11479,0.28659 0.21769,0.36243 0.44137,0.32528 0.74138,0.0898 1.15081,-0.1 m -2.09506,8.82288 c 0.20665,0.13674 0.42095,0.26129 0.61967,0.41002 0.0785,0.0587 0.18799,0.18401 0.29508,0.17668 0.16602,-0.0114 0.36548,-0.29427 0.46711,-0.40965 0.42142,-0.47842 0.70355,-1.2644 0.47552,-1.88851 -0.40466,-1.1076 -1.78693,-1.33761 -2.59392,-2.04901 -0.56502,-0.49808 -0.54393,-1.21199 0.0283,-1.68889 0.17285,-0.14404 0.38351,-0.24816 0.59016,-0.3342 -0.25155,-0.16704 -0.57937,-0.25634 -0.85573,-0.3795 -0.095,-0.0423 -0.21622,-0.13509 -0.32459,-0.12348 -0.17253,0.0185 -0.35787,0.24046 -0.47201,0.35547 -0.49207,0.49578 -0.6665,1.23634 -0.38748,1.88848 0.34138,0.79788 1.12836,1.22105 1.83325,1.65812 0.40383,0.25039 0.9298,0.56269 1.10748,1.0271 0.2456,0.64193 -0.38625,1.0115 -0.78289,1.35737 m -0.11803,-5.73561 c -0.0889,0.0202 -0.23046,0.0647 -0.25503,0.16492 -0.038,0.15501 0.019,0.39038 0.019,0.55434 0,0.467 -0.0117,0.95053 0.0312,1.41511 0.0127,0.13774 0.18481,0.26083 0.32286,0.22852 0.2634,-0.0616 0.23606,-0.27748 0.23606,-0.49282 0,-0.4132 0.0295,-0.8248 0.0295,-1.23933 0,-0.13199 0.0637,-0.37199 0.0113,-0.49003 -0.0531,-0.11967 -0.28123,-0.1665 -0.39487,-0.14071 m 0.0295,3.58153 v -0.059 c -0.23602,-0.11162 -0.65206,-0.54233 -0.91475,-0.50937 -0.17554,0.022 -0.38151,0.24494 -0.50164,0.36227 -0.64312,0.62813 -0.62508,1.46362 -0.19392,2.21266 0.27574,0.47902 0.73179,0.83264 1.1972,1.11531 0.28215,0.17138 0.63444,0.30186 0.8442,0.56676 0.22195,0.28027 0.10186,0.57351 -0.0967,0.82611 -0.0619,0.0787 -0.21026,0.18673 -0.21022,0.29508 3e-5,0.10312 0.13475,0.20018 0.20045,0.26555 0.36538,0.36349 0.82969,-0.17072 1.02322,-0.53113 0.0736,-0.13711 0.11999,-0.28916 0.14415,-0.44261 0.19828,-1.25971 -1.25306,-1.62813 -1.96365,-2.30429 -0.68276,-0.64967 -0.21901,-1.40378 0.4717,-1.79732 m 0.0295,0.0331 c -0.23368,0.0209 -0.22056,0.24249 -0.20919,0.40951 0.0272,0.40044 0.0134,0.80906 0.031,1.20983 0.007,0.14874 -0.0366,0.46137 0.20761,0.43902 0.22974,-0.021 0.16924,-0.3144 0.1798,-0.46853 0.0301,-0.43963 0.0739,-0.91773 0.047,-1.35725 -0.007,-0.11863 -0.13198,-0.24369 -0.25619,-0.23258 m -0.94425,2.79965 c -0.14835,0.16118 -0.28327,0.33048 -0.37438,0.53115 -0.0669,0.1474 -0.11333,0.31018 -0.12461,0.47212 -0.0972,1.39471 1.64646,1.46712 2.20767,2.41966 0.17777,0.30172 0.0738,0.62277 0.0323,0.94425 0.11385,-0.0941 0.19117,-0.21716 0.24708,-0.3541 0.39078,-0.95708 -0.59985,-1.54991 -1.16256,-2.15408 -0.43406,-0.46604 -0.50632,-0.88221 0.0598,-1.26884 v -0.059 l -0.88524,-0.53115 m 0.94425,1.94753 c 0.23597,-0.17977 0.16986,-0.72243 0.17662,-1.00327 0.003,-0.12019 0.0166,-0.30854 -0.14754,-0.3232 -0.17399,-0.0155 -0.1777,0.17162 -0.1765,0.29369 0.003,0.29728 -0.0479,0.80184 0.14742,1.03278 m -0.7672,2.41965 c -0.0251,-0.19393 -0.0881,-0.39297 -0.0732,-0.59016 0.0355,-0.47258 0.44185,-0.74705 0.81095,-0.97376 -0.10096,-0.0837 -0.3082,-0.23831 -0.44262,-0.24146 -0.14131,-0.003 -0.3004,0.20427 -0.38315,0.30311 -0.34642,0.41377 -0.34645,1.14227 0.0881,1.50227 m 0.7672,1.77048 c 0.10592,-0.25006 0.059,-0.58873 0.059,-0.85573 0,-0.56343 -0.0313,-1.18273 0.042,-1.74097 0.0139,-0.10585 0.093,-0.76528 -0.12174,-0.68308 -0.16884,0.0646 -0.0457,0.6598 -0.0395,0.80111 0.036,0.82237 0.0534,1.65662 0.0602,2.47867 z"
                                 id="path1" />
                            </g>
                          </g>
                        </g>
                      </g>
                    </g>
                  </g>
                </g>
              </g>
            </g>
          </g>
        </g>
      </g>
    </g>
  </g>
</svg>
